<svg xmlns="http://www.w3.org/2000/svg" xmlns:xlink="http://www.w3.org/1999/xlink" version="1.1" x="0px" y="0px" viewBox="0 0 100 125" enable-background="new 0 0 100 100" xml:space="preserve"><g><path d="M59.191,39.018c-0.737-2.704-2.072-9.297,0.387-15.027c0.848-1.818,1.295-3.877,1.295-5.953   c0-6.923-4.877-12.555-10.873-12.555c-5.997,0-10.875,5.632-10.875,12.555c0,1.836,0.352,3.665,1.021,5.318   c0.016,0.167,0.057,0.334,0.125,0.491c2.513,5.835,1.118,12.484,0.358,15.19c-11.571,1.26-17.435,5.201-17.435,11.722v36.814   c0,0.888,0.722,1.609,1.611,1.609H37.4H50h12.598h12.598c0.889,0,1.61-0.721,1.61-1.609V50.759   C76.805,44.205,70.878,40.258,59.191,39.018z M42.005,42.134c0.635-0.057,1.178-0.487,1.378-1.093   c0.557-1.672,3.12-10.255,0.042-17.986c-0.014-0.182-0.061-0.363-0.137-0.535c-0.617-1.366-0.943-2.916-0.943-4.482   c0-5.148,3.432-9.336,7.654-9.336c4.219,0,7.652,4.188,7.652,9.336c0,1.616-0.347,3.211-1.003,4.611   c-0.005,0.017-0.014,0.031-0.019,0.047c-3.25,7.547-0.982,15.926-0.21,18.315c0.2,0.614,0.748,1.05,1.393,1.106   c9.237,0.825,14.457,3.186,15.552,7.03H26.635C27.725,45.33,32.878,42.973,42.005,42.134z M64.207,85.962V70.643   c0-0.888-0.72-1.61-1.609-1.61c-0.892,0-1.608,0.722-1.608,1.61v15.319h-9.378V70.643c0-0.888-0.722-1.61-1.611-1.61   c-0.889,0-1.611,0.722-1.611,1.61v15.319h-9.377V70.643c0-0.888-0.722-1.61-1.611-1.61s-1.605,0.722-1.605,1.61v15.319h-9.379   V52.369h47.171v33.593H64.207z"/><path d="M50,14.512c-1.668,0-3.026,1.356-3.026,3.022c0,1.668,1.358,3.023,3.026,3.023s3.022-1.355,3.022-3.023   C53.022,15.868,51.667,14.512,50,14.512z M50,17.729c-0.108,0-0.195-0.086-0.195-0.196c0-0.107,0.087-0.194,0.195-0.194   c0.107,0,0.196,0.087,0.196,0.194C50.196,17.643,50.107,17.729,50,17.729z"/></g><text x="0" y="115" fill="#000000" font-size="5px" font-weight="bold" font-family="'Helvetica Neue', Helvetica, Arial-Unicode, Arial, Sans-serif">Created by Cezary Rudaś</text><text x="0" y="120" fill="#000000" font-size="5px" font-weight="bold" font-family="'Helvetica Neue', Helvetica, Arial-Unicode, Arial, Sans-serif">from the Noun Project</text></svg>